<?xml version="1.0" encoding="UTF-8"?>
<svg width="91px" height="96px" viewBox="0 0 91 96" version="1.1" xmlns="http://www.w3.org/2000/svg" xmlns:xlink="http://www.w3.org/1999/xlink">
    <!-- Generator: Sketch 63.1 (92452) - https://sketch.com -->
    <title>Group 31 Copy</title>
    <desc>Created with Sketch.</desc>
    <g id="Page-1" stroke="none" stroke-width="1" fill="none" fill-rule="evenodd" stroke-linecap="round" stroke-linejoin="round">
        <g id="Artboard-Copy-3" transform="translate(-252.000000, -1310.000000)" stroke="#FFFFFF">
            <g id="Group-31-Copy" transform="translate(253.000000, 1311.000000)">
                <line x1="40.8794" y1="79.2672" x2="36.3904" y2="87.7972" id="Stroke-1" stroke-width="2.953"></line>
                <g id="Group-30" transform="translate(0.000000, 0.211400)">
                    <path d="M29.2075,91.6256 C29.2075,91.6256 35.9415,84.4426 43.1245,92.0746" id="Stroke-2" stroke-width="2.953"></path>
                    <path d="M48.9604,92.0748 C48.9604,92.0748 55.6934,84.8918 62.8774,92.5238" id="Stroke-4" stroke-width="2.953"></path>
                    <path d="M73.1709,30.2311 C73.1709,30.2311 73.1749,30.2311 73.1749,30.2261 C73.4809,29.9301 73.7679,29.6161 74.0369,29.2841 C75.7609,27.1911 76.7939,24.5161 76.7939,21.5931 C76.7939,14.9001 71.3659,9.4731 64.6719,9.4731 C57.9789,9.4731 52.5519,14.9001 52.5519,21.5931 C52.5519,21.7731 52.5559,21.9441 52.5649,22.1191 L52.5649,22.1231" id="Stroke-6" stroke-width="2.953"></path>
                    <line x1="74.1001" y1="29.2252" x2="72.6951" y2="30.9852" id="Stroke-8" stroke-width="2.953"></line>
                    <polyline id="Stroke-10" stroke-width="2.953" points="52.5649 22.1232 52.5649 22.1192 52.5109 21.9842"></polyline>
                    <path d="M1.3745,38.653 C1.3745,38.653 1.4915,38.828 1.7245,39.133 C3.9105,41.984 16.3635,56.21 39.0835,44.04 C50.8815,37.719 53.2875,29.221 52.5115,21.984" id="Stroke-12" stroke-width="2.953"></path>
                    <path d="M74.1001,29.2252 C74.0781,29.2432 74.0551,29.2662 74.0371,29.2842 C73.6961,29.5932 73.4131,29.9122 73.1751,30.2262 C73.1751,30.2312 73.1711,30.2312 73.1711,30.2312 C72.9821,30.4822 72.8251,30.7332 72.6951,30.9852 C70.7961,34.5722 74.1001,38.2042 74.1001,38.2042 C74.1001,38.2042 92.0571,68.7302 59.7341,76.8112 C27.4121,84.8922 4.5171,60.6502 4.5171,60.6502 L9.0061,56.1612 L0.4761,53.4672 L7.6591,51.6712 C2.7301,47.5322 1.5271,42.9622 1.7251,39.1332" id="Stroke-14" stroke-width="2.953"></path>
                    <line x1="55.6938" y1="88.4835" x2="50.3068" y2="78.6075" id="Stroke-16" stroke-width="2.953"></line>
                    <path d="M55.6938,48.9781 C55.6938,48.9781 57.1288,74.1701 30.1498,75.9391" id="Stroke-18" stroke-width="2.953"></path>
                    <path d="M59.1015,10.8282 L59.1055,10.8282 C59.2585,10.7662 59.4065,10.6892 59.5505,10.6082 C59.5505,10.6082 59.5545,10.6082 59.5545,10.6042" id="Stroke-20" stroke-width="2.953"></path>
                    <path d="M58.2192,11.3268 C57.7122,11.4568 57.1732,11.5108 56.6212,11.4788 C53.6492,11.3048 51.3912,8.6508 51.5752,5.5578 C51.7592,2.4648 54.3132,0.0988 57.2852,0.2738 C59.2162,0.3908 60.8452,1.5488 61.6982,3.1968" id="Stroke-22" stroke-width="2.953"></path>
                    <path d="M61.6982,3.1964 C62.4162,1.6034 64.0062,0.5434 65.7922,0.6464 C67.9612,0.7774 69.6532,2.5904 69.7572,4.8034" id="Stroke-24" stroke-width="2.317"></path>
                    <path d="M69.7568,4.8038 C70.4388,4.3998 71.2378,4.1888 72.0778,4.2378 C74.4078,4.3768 76.1808,6.4558 76.0368,8.8848 C75.9208,10.8648 74.5648,12.4628 72.8098,12.9158" id="Stroke-26" stroke-width="2.317"></path>
                    <polyline id="Stroke-28" stroke-width="2.317" points="75.7163 16.5973 88.0163 20.6963 75.9223 26.1053"></polyline>
                </g>
            </g>
        </g>
    </g>
</svg>