<?xml version="1.0" encoding="UTF-8"?>
<svg width="80px" height="95px" viewBox="0 0 80 95" version="1.1" xmlns="http://www.w3.org/2000/svg" xmlns:xlink="http://www.w3.org/1999/xlink">
    <!-- Generator: Sketch 63.1 (92452) - https://sketch.com -->
    <title>Group</title>
    <desc>Created with Sketch.</desc>
    <g id="Page-1" stroke="none" stroke-width="1" fill="none" fill-rule="evenodd" stroke-linecap="round" stroke-linejoin="round">
        <g id="Artboard-Copy-3" transform="translate(-1162.000000, -1994.000000)" stroke="#FFFFFF" stroke-width="3.524">
            <g id="Group" transform="translate(1164.761818, 1995.761910)">
                <path d="M17.6085816,13.7940898 C0.396581641,25.3340898 -4.15141836,50.6630898 3.76358164,66.6050898 C10.7445816,80.6730898 26.7815816,89.5000898 43.9995816,89.0920898 L44.0105816,89.0920898 L44.0385816,89.0920898 L44.0445816,89.0920898 L44.0725816,89.0920898 C44.4475816,89.0860898 44.8215816,89.0690898 45.1965816,89.0470898 L45.2135816,89.0470898" id="Stroke-1-Copy"></path>
                <path d="M44.8497816,75.4820898 L44.8277816,75.4820898 C44.4417816,75.4989356 44.0497816,75.5040898 43.6527816,75.4930898 L43.6417816,75.4930898 C38.4677816,75.3930898 33.0467816,73.1050898 30.5017816,70.2970898 C22.8937816,61.9180898 26.4857816,48.2570898 38.5067816,38.2390898" id="Stroke-3-Copy"></path>
                <path d="M67.3634816,1.49818983 C39.5494816,-3.26181017 26.1854816,4.27918983 20.2124816,10.7201898 C17.7604816,13.3641898 18.6894816,17.2001898 18.7254816,18.1571898 C19.0764816,27.5651898 27.8684816,37.1941898 38.5084816,38.2371898 C47.1274816,39.0811898 53.5514816,33.9561898 55.1664816,32.5841898 C55.1664816,32.5841898 71.0964816,23.0361898 75.3814816,8.84318983 L66.3944816,8.21618983 L67.3634816,1.49818983 Z" id="Stroke-5-Copy"></path>
                <path d="M2.64968164,35.2701898 C2.64968164,35.2701898 6.67968164,45.4881898 21.4416816,43.6911898" id="Stroke-7-Copy"></path>
                <path d="M2.64968164,64.0899898 C2.64968164,64.0899898 11.3726816,67.1919898 17.4586816,60.8089898" id="Stroke-9-Copy"></path>
                <path d="M19.4635816,82.9449898 C19.4635816,82.9449898 24.4355816,83.3719898 26.8105816,77.4349898" id="Stroke-11-Copy"></path>
                <path d="M28.9635816,39.5870898 C28.9635816,39.5870898 26.5295816,53.3860898 41.6715816,55.4650898" id="Stroke-13-Copy"></path>
                <path d="M39.4484816,40.5729898 C39.4484816,40.5729898 45.2074816,47.2529898 59.8934816,45.0259898" id="Stroke-15-Copy"></path>
                <path d="M43.9997816,89.0919898 C44.0167816,89.0969898 44.0277816,89.0969898 44.0447816,89.0919898 C44.1457816,89.1029898 44.2517816,89.1029898 44.3527816,89.1029898 C44.6437816,89.1029898 44.9287816,89.0869898 45.2137816,89.0469898 C48.5697816,88.6279898 51.1767816,85.7579898 51.1767816,82.2839898 C51.1767816,78.6819898 48.3797816,75.7339898 44.8497816,75.4819898 C44.6877816,75.4659898 44.5207816,75.4599898 44.3527816,75.4599898 C44.1177816,75.4599898 43.8827816,75.4709898 43.6527816,75.4929898 L43.6417816,75.4929898" id="Stroke-17-Copy"></path>
                <path d="M45.1969816,89.0470898 L45.2139816,89.0470898 L60.0539816,91.1510898 C61.4579816,91.3460898 62.4869816,89.8640898 61.8099816,88.6160898 L59.8919816,85.0870898 L68.1479816,82.7430898 C68.6789816,82.5920898 68.7579816,81.8700898 68.2649816,81.6080898 L61.9779816,78.2740898 L64.4279816,75.1860898 C65.0599816,74.3860898 64.3839816,73.2220898 63.3769816,73.3840898 L47.0089816,76.0030898" id="Stroke-19-Copy"></path>
            </g>
        </g>
    </g>
</svg>